<?xml version="1.0" encoding="UTF-8" standalone="no"?>
<svg
   xmlns:dc="http://purl.org/dc/elements/1.1/"
   xmlns:cc="http://creativecommons.org/ns#"
   xmlns:rdf="http://www.w3.org/1999/02/22-rdf-syntax-ns#"
   xmlns:svg="http://www.w3.org/2000/svg"
   xmlns="http://www.w3.org/2000/svg"
   xmlns:sodipodi="http://sodipodi.sourceforge.net/DTD/sodipodi-0.dtd"
   xmlns:inkscape="http://www.inkscape.org/namespaces/inkscape"
   width="28.546131mm"
   height="54.659718mm"
   viewBox="0 0 28.546129 54.659715"
   version="1.1"
   id="svg8"
   inkscape:version="1.0.2 (1.0.2+r75+1)"
   sodipodi:docname="bisect-bad.svg">
  <defs
     id="defs2">
    <inkscape:path-effect
       effect="spiro"
       id="path-effect849"
       is_visible="true"
       lpeversion="1" />
    <inkscape:path-effect
       effect="spiro"
       id="path-effect845"
       is_visible="true"
       lpeversion="1" />
    <inkscape:path-effect
       effect="spiro"
       id="path-effect852"
       is_visible="true"
       lpeversion="1" />
    <inkscape:path-effect
       effect="spiro"
       id="path-effect848"
       is_visible="true"
       lpeversion="1" />
    <inkscape:path-effect
       effect="spiro"
       id="path-effect844"
       is_visible="true"
       lpeversion="1" />
    <inkscape:path-effect
       effect="spiro"
       id="path-effect1251"
       is_visible="true"
       lpeversion="1" />
    <inkscape:path-effect
       effect="spiro"
       id="path-effect895"
       is_visible="true"
       lpeversion="1" />
  </defs>
  <sodipodi:namedview
     id="base"
     pagecolor="#ffffff"
     bordercolor="#666666"
     borderopacity="1.0"
     inkscape:pageopacity="0.0"
     inkscape:pageshadow="2"
     inkscape:zoom="1.979899"
     inkscape:cx="3.9693845"
     inkscape:cy="-3.2222228"
     inkscape:document-units="mm"
     inkscape:current-layer="layer1"
     inkscape:document-rotation="0"
     showgrid="false"
     inkscape:window-width="3840"
     inkscape:window-height="2111"
     inkscape:window-x="0"
     inkscape:window-y="0"
     inkscape:window-maximized="1"
     inkscape:snap-global="false" />
  <metadata
     id="metadata5">
    <rdf:RDF>
      <cc:Work
         rdf:about="">
        <dc:format>image/svg+xml</dc:format>
        <dc:type
           rdf:resource="http://purl.org/dc/dcmitype/StillImage" />
        <dc:title />
      </cc:Work>
    </rdf:RDF>
  </metadata>
  <g
     inkscape:label="Layer 1"
     inkscape:groupmode="layer"
     id="layer1"
     transform="translate(-102.96792,-66.131819)">
    <rect
       style="fill:#c2bf26;fill-opacity:1;fill-rule:evenodd;stroke-width:0.0999996;stroke-linecap:round;stroke-linejoin:round"
       id="rect831"
       width="24.586214"
       height="24.586214"
       x="103.71105"
       y="96.205322"
       ry="3.3460476" />
    <path
       style="fill:none;fill-opacity:0.997727;stroke:#000000;stroke-width:1.5;stroke-linecap:square"
       d="m 124.96007,116.35703 c -0.9075,-1.50926 -2.25906,-2.74783 -3.84161,-3.52046 -1.53329,-0.74858 -3.25425,-1.0568 -4.96023,-1.08824 -2.12097,-0.0391 -4.31181,0.36664 -6.06555,1.56013 -1.18531,0.80665 -2.13324,1.95772 -2.69763,3.27571"
       id="path850"
       inkscape:path-effect="#path-effect852"
       inkscape:original-d="m 124.96007,116.35703 c -1.28082,-1.1737 -2.56136,-2.34719 -3.84161,-3.52046 -1.28024,-1.17324 -3.37298,-0.92638 -4.96023,-1.08824 -1.58726,-0.16186 -3.97813,1.24053 -6.06555,1.56013 -2.08742,0.31964 -1.79871,2.18357 -2.69763,3.27571"
       sodipodi:nodetypes="csssc" />
    <path
       style="fill:#000000;fill-opacity:0.997727;stroke:none;stroke-width:1.5;stroke-linecap:square"
       d="m 112.08009,102.90022 c -0.46493,0.0954 -0.85677,0.39408 -1.2666,0.63344 -0.32525,0.18996 -0.67086,0.34645 -0.97913,0.56288 -0.30827,0.21644 -0.58391,0.50554 -0.69227,0.86628 -0.0775,0.25807 -0.0636,0.54032 0.0249,0.79484 0.0885,0.25452 0.24942,0.48137 0.45048,0.66077 0.40213,0.3588 0.94856,0.52047 1.48619,0.55777 0.72778,0.0505 1.48497,-0.11988 2.06861,-0.55757 0.29182,-0.21885 0.53683,-0.50208 0.7003,-0.82816 0.16347,-0.32608 0.24403,-0.69506 0.21896,-1.05896 -0.0336,-0.48755 -0.26406,-0.96239 -0.63946,-1.27529 -0.37541,-0.3129 -0.89327,-0.45419 -1.37201,-0.356 z"
       id="path843"
       inkscape:path-effect="#path-effect845"
       inkscape:original-d="m 112.08009,102.90022 c -0.67075,-0.54402 -0.8084,0.32653 -1.2666,0.63344 -0.45821,0.30688 -1.14975,1.04903 -1.6714,1.42916 -0.52166,0.38013 0.96013,1.48785 1.9616,2.01338 1.00148,0.52552 2.34005,-1.77487 2.98787,-2.44469 0.64783,-0.66983 -1.34071,-1.08726 -2.01147,-1.63129 z"
       sodipodi:nodetypes="scssss" />
    <path
       style="fill:#000000;fill-opacity:0.997727;stroke:none;stroke-width:1.5;stroke-linecap:square"
       d="m 119.81963,103.07108 c 0.46494,0.0954 0.85678,0.39407 1.26661,0.63343 0.32525,0.18996 0.67085,0.34645 0.97912,0.56288 0.30827,0.21644 0.58392,0.50554 0.69227,0.86628 0.0775,0.25807 0.0636,0.54032 -0.0249,0.79484 -0.0885,0.25451 -0.24942,0.48137 -0.45048,0.66077 -0.40213,0.3588 -0.94856,0.52047 -1.48619,0.55777 -0.72778,0.0505 -1.48498,-0.11987 -2.06862,-0.55757 -0.29182,-0.21885 -0.53683,-0.50207 -0.7003,-0.82816 -0.16347,-0.32608 -0.24402,-0.69506 -0.21895,-1.05896 0.0336,-0.48755 0.26407,-0.96238 0.63947,-1.27528 0.3754,-0.3129 0.89326,-0.45418 1.372,-0.356 z"
       id="path847"
       inkscape:path-effect="#path-effect849"
       inkscape:original-d="m 119.81963,103.07108 c 0.67075,-0.54403 0.8084,0.32652 1.26661,0.63343 0.4582,0.30688 1.14974,1.04903 1.67139,1.42916 0.52166,0.38013 -0.96013,1.48786 -1.9616,2.01338 -1.00148,0.52552 -2.34005,-1.77487 -2.98787,-2.44469 -0.64783,-0.66982 1.34071,-1.08726 2.01147,-1.63128 z"
       sodipodi:nodetypes="scssss" />
    <g
       id="g905"
       style="fill:#00cbff;fill-opacity:1"
       transform="matrix(0.26458334,0,0,0.26458334,95.271864,62.434673)">
      <path
         id="path2492"
         style="fill:#00cbff;fill-opacity:1;stroke:none;stroke-width:1.00157;stroke-linecap:round"
         d="m 55.796875,7.6132812 c -0.560182,0.017952 -1.098084,0.2236204 -1.527344,0.5839844 -1.058043,0.8867507 -1.197068,2.4632494 -0.310547,3.5214844 l 5.433594,7.388672 c -2.744176,1.784846 -5.187564,4.078927 -7.175781,6.822266 C 49.188264,25.2699 46.191622,24.471534 43.236328,23.537109 44.956237,28.963834 46.215255,34.525858 47,40.164062 c 0.323687,3.296344 0.651531,6.478082 0.865234,9.449219 0.0068,0.13996 0.01331,0.279935 0.01953,0.419922 l 0.0039,0.09375 0.0059,0.191406 c 0.0085,0.218073 0.01633,0.436173 0.02344,0.654297 0.0081,0.250624 0.01525,0.501276 0.02148,0.751953 l 0.002,0.09375 c 0.0055,0.250633 0.01005,0.501289 0.01367,0.751953 l 0.002,0.09375 c 0.0035,0.250642 0.0061,0.501294 0.0078,0.751954 0.0015,0.233721 0.0021,0.467444 0.002,0.701172 -2.26e-4,3.666971 -0.199739,7.331223 -0.597656,10.976562 -0.06106,0.561087 -0.126823,1.121653 -0.197266,1.681641 -0.03529,0.279447 -0.07175,0.558747 -0.109375,0.83789 -0.07541,0.559253 -0.155486,1.117869 -0.240234,1.675781 -0.08453,0.558028 -0.17373,1.115336 -0.267578,1.671876 -0.09366,0.55615 -0.191975,1.111507 -0.294922,1.666015 -0.05158,0.276911 -0.104315,0.553606 -0.158204,0.830078 -0.108007,0.553665 -0.220641,1.106419 -0.33789,1.658203 -0.05809,0.276288 -0.117337,0.552332 -0.177734,0.828125 -0.121711,0.550524 -0.248015,1.100023 -0.378907,1.648438 -0.130838,0.548647 -0.266259,1.096192 -0.40625,1.642578 -0.139976,0.546119 -0.284513,1.09106 -0.433593,1.634766 v 0.002 c -0.02848,0.10291 -0.05713,0.205775 -0.08594,0.308594 -1.336898,4.818357 -3.029028,9.531119 -5.0625,14.099609 0,0 -0.734719,1.261701 -1.691406,3.369141 -1.675516,4.068605 -4.021909,10.994475 -4.34961,18.564455 -0.132438,3.05938 -0.0549,5.93725 0.75586,8.4668 0.810758,2.52954 2.271859,4.78448 5.376953,6.91406 6.210188,4.25917 19.38424,7.58924 45.121094,7.48828 24.367004,-0.0956 39.761574,-6.22712 47.042964,-13.38281 3.6407,-3.57785 5.27773,-7.32021 5.36133,-10.83984 0.0836,-3.51965 -1.35409,-6.9657 -4.55274,-10.08204 -3.51125,-3.4209 -6.6659,-4.49386 -9.82031,-4.41406 -3.15439,0.0798 -6.45683,1.4606 -9.71483,3.63086 -6.51605,4.34052 -12.42764,11.58806 -16.873055,15.54883 -7.051551,6.28279 -20.742276,11.80717 -34.158203,8.60156 -12.728849,-3.04144 -18.859375,-7.67969 -18.859375,-7.67969 -1.094319,-0.84191 -1.141171,-1.57436 -0.299264,-2.66868 0.842508,-1.09368 2.254283,-0.13459 3.348092,0.70775 0,0 4.975224,3.91066 16.972656,6.77734 11.310356,2.70251 24.023021,-2.43943 29.669922,-7.4707 3.749745,-3.34095 9.971387,-11.01163 17.427737,-15.97852 0.26113,-0.17394 0.52975,-0.33637 0.79492,-0.50391 -1.30442,-3.163711 -2.42382,-7.054686 -2.42382,-7.054685 -2.03272,-4.567911 -3.72419,-9.280017 -5.06055,-14.097657 -0.0754,-0.271824 -0.14958,-0.543962 -0.22266,-0.816406 -0.0734,-0.272483 -0.14567,-0.545272 -0.2168,-0.818359 -0.0708,-0.273145 -0.14046,-0.546585 -0.20899,-0.820313 -0.0682,-0.273157 -0.13525,-0.546596 -0.20117,-0.820312 -0.0662,-0.274466 -0.13136,-0.549208 -0.19531,-0.824219 -0.0636,-0.273177 -0.12614,-0.546617 -0.1875,-0.820313 l -0.002,-0.0059 c -0.0617,-0.274486 -0.12224,-0.549228 -0.18164,-0.824219 -0.0591,-0.275798 -0.11703,-0.551843 -0.17382,-0.828125 -0.0571,-0.275807 -0.11313,-0.551851 -0.16797,-0.828125 -0.0552,-0.277116 -0.10923,-0.554462 -0.16211,-0.832031 -0.0519,-0.27713 -0.10273,-0.554477 -0.15235,-0.832031 -0.029,-0.160087 -0.0577,-0.320244 -0.0859,-0.480469 -0.0331,-0.187408 -0.0656,-0.374909 -0.0977,-0.5625 -0.0352,-0.208225 -0.0697,-0.416559 -0.10352,-0.625 -0.0454,-0.277809 -0.0897,-0.555806 -0.13281,-0.833984 -0.0435,-0.279119 -0.0858,-0.558418 -0.12695,-0.837891 -0.0409,-0.27913 -0.0806,-0.558429 -0.11914,-0.837891 -0.0383,-0.279141 -0.0754,-0.55844 -0.11133,-0.83789 -0.0363,-0.2798 -0.0715,-0.55975 -0.10547,-0.839844 -0.0337,-0.279811 -0.0662,-0.559761 -0.0977,-0.839844 -0.0214,-0.191346 -0.0422,-0.382756 -0.0625,-0.574218 -0.018,-0.167925 -0.0356,-0.335894 -0.0527,-0.503907 -0.0278,-0.275931 -0.0545,-0.551975 -0.0801,-0.828125 -0.0154,-0.163375 -0.0303,-0.326787 -0.04492,-0.490234 l -0.01172,-0.132813 c -0.01752,-0.199819 -0.03445,-0.39969 -0.05078,-0.599609 -0.01207,-0.153619 -0.02379,-0.307263 -0.03516,-0.460938 l -0.0039,-0.04687 c -0.0192,-0.25579 -0.03743,-0.511651 -0.05469,-0.767579 -0.01502,-0.217401 -0.02935,-0.43485 -0.04297,-0.652343 -0.01746,-0.281832 -0.03373,-0.563733 -0.04883,-0.845704 -0.01032,-0.193981 -0.02009,-0.387993 -0.0293,-0.582031 -0.0075,-0.14712 -0.01466,-0.294255 -0.02148,-0.441406 -0.0092,-0.221977 -0.01766,-0.443983 -0.02539,-0.666016 -0.01029,-0.281862 -0.01941,-0.563765 -0.02734,-0.845703 -0.0058,-0.206364 -0.01104,-0.412745 -0.01563,-0.61914 -0.0036,-0.151034 -0.0068,-0.302076 -0.0098,-0.453125 v -0.03516 c -0.0049,-0.259098 -0.0088,-0.518215 -0.01172,-0.777343 v -0.177735 c -0.0021,-0.237625 -0.0034,-0.475256 -0.0039,-0.71289 v -0.08008 c 1.25e-4,-0.281906 0.0014,-0.563809 0.0039,-0.845704 0.0099,-1.217273 0.04185,-2.434267 0.0957,-3.65039 v -0.002 c 0.292563,-3.498121 0.53287,-6.372261 0.86718,-9.449219 0.78453,-5.639525 2.04355,-11.202862 3.76367,-16.63086 -2.95468,0.933711 -5.950663,1.731421 -8.978506,2.390626 -1.646309,-2.271423 -3.605908,-4.234499 -5.78711,-5.857422 l 6.14255,-8.353474 C 96.595505,10.660515 96.45648,9.0840166 95.398438,8.1972656 94.969178,7.8369016 94.431276,7.6312333 93.871094,7.6132812 93.10467,7.5892409 92.369606,7.9182564 91.876953,8.5058594 l -2.226562,2.6542966 -3.8125,-3.1972654 C 85.575132,7.7429098 85.244974,7.6195312 84.902344,7.6132812 c -0.453278,-0.00876 -0.886203,0.1879563 -1.177735,0.5351563 -0.532366,0.634793 -0.449292,1.5809693 0.185547,2.1132815 l 3.814453,3.199219 -2.478515,3.996093 C 81.707435,15.745394 77.804856,14.812639 73.785156,14.8125 c -0.06315,-2.28e-4 -0.126302,-2.28e-4 -0.189453,0 -3.340376,0.02432 -6.596158,0.693987 -9.626953,1.914062 l -2.025391,-3.265624 3.814453,-3.199219 c 0.634839,-0.5323121 0.717912,-1.4784891 0.185547,-2.1132815 -0.291533,-0.3472 -0.724456,-0.543918 -1.177734,-0.5351563 -0.342629,0.00625 -0.672788,0.1296282 -0.935547,0.3496094 l -3.8125,3.1972654 -2.226562,-2.6542966 C 57.298364,7.9182562 56.563299,7.5892408 55.796875,7.6132812 Z m 8.400391,17.4863278 c 4.766465,5.47e-4 8.630312,3.864395 8.630859,8.63086 5.31e-4,4.767228 -3.863631,8.632265 -8.630859,8.632812 -4.767991,5.32e-4 -8.633344,-3.864821 -8.632813,-8.632812 5.47e-4,-4.767229 3.865584,-8.631392 8.632813,-8.63086 z m 19.173828,0 c 4.767228,-5.31e-4 8.632265,3.863632 8.632812,8.63086 5.31e-4,4.76799 -3.864822,8.633343 -8.632812,8.632812 -4.767228,-5.47e-4 -8.631391,-3.865584 -8.63086,-8.632812 5.47e-4,-4.766466 3.864394,-8.630313 8.63086,-8.63086 z m -9.779297,16.734375 6.087891,2.396485 -1.50586,5.404297 -4.386719,5.341796 -4.197265,-5.005859 -1.701172,-5.738281 z"
         sodipodi:nodetypes="ccccccccccccccccccccccccccccccccccssssscssssscccsssccscccccccccccccccccccccccccccccccccccsccccccccccccccccccccccccccccccccccccccsccsssssccccccc" />
      <path
         id="path2669-9"
         style="font-variation-settings:normal;vector-effect:none;fill:#00cbff;fill-opacity:1;stroke:none;stroke-width:0.517008;stroke-linecap:round;stroke-linejoin:miter;stroke-miterlimit:4;stroke-dasharray:none;stroke-dashoffset:0;stroke-opacity:1;stop-color:#000000"
         d="m 65.175781,28.017578 a 5,5 0 0 1 0.355469,1.851563 5,5 0 0 1 -5,5 5,5 0 0 1 -2.091797,-0.458985 5.7966113,5.7966113 0 0 0 5.757813,5.117188 5.7966113,5.7966113 0 0 0 5.796875,-5.796875 5.7966113,5.7966113 0 0 0 -4.81836,-5.712891 z" />
      <path
         id="path2669-9-0"
         style="font-variation-settings:normal;vector-effect:none;fill:#00cbff;fill-opacity:1;stroke:none;stroke-width:0.517008;stroke-linecap:round;stroke-linejoin:miter;stroke-miterlimit:4;stroke-dasharray:none;stroke-dashoffset:0;stroke-opacity:1;stop-color:#000000"
         d="m 84.330926,27.976192 a 5,5 0 0 1 0.355469,1.851563 5,5 0 0 1 -5,5 5,5 0 0 1 -2.091797,-0.458985 5.7966113,5.7966113 0 0 0 5.757813,5.117188 5.7966113,5.7966113 0 0 0 5.796875,-5.796875 5.7966113,5.7966113 0 0 0 -4.81836,-5.712891 z" />
    </g>
  </g>
</svg>
