<?xml version="1.0" encoding="UTF-8" standalone="no"?>
<svg
   xmlns:dc="http://purl.org/dc/elements/1.1/"
   xmlns:cc="http://creativecommons.org/ns#"
   xmlns:rdf="http://www.w3.org/1999/02/22-rdf-syntax-ns#"
   xmlns:svg="http://www.w3.org/2000/svg"
   xmlns="http://www.w3.org/2000/svg"
   xmlns:sodipodi="http://sodipodi.sourceforge.net/DTD/sodipodi-0.dtd"
   xmlns:inkscape="http://www.inkscape.org/namespaces/inkscape"
   version="1.1"
   id="svg2480"
   width="103.72355"
   height="130.47231"
   viewBox="0 0 103.72355 130.4723"
   sodipodi:docname="head2.svg"
   inkscape:version="1.0.2 (1.0.2+r75+1)">
  <metadata
     id="metadata2486">
    <rdf:RDF>
      <cc:Work
         rdf:about="">
        <dc:format>image/svg+xml</dc:format>
        <dc:type
           rdf:resource="http://purl.org/dc/dcmitype/StillImage" />
        <dc:title />
      </cc:Work>
    </rdf:RDF>
  </metadata>
  <defs
     id="defs2484" />
  <sodipodi:namedview
     pagecolor="#ffffff"
     bordercolor="#666666"
     borderopacity="1"
     objecttolerance="10"
     gridtolerance="10"
     guidetolerance="10"
     inkscape:pageopacity="0"
     inkscape:pageshadow="2"
     inkscape:window-width="3840"
     inkscape:window-height="2111"
     id="namedview2482"
     showgrid="false"
     inkscape:snap-bbox="true"
     inkscape:bbox-paths="true"
     inkscape:bbox-nodes="true"
     inkscape:snap-bbox-edge-midpoints="true"
     inkscape:snap-bbox-midpoints="true"
     inkscape:snap-smooth-nodes="true"
     inkscape:snap-text-baseline="true"
     inkscape:snap-center="true"
     inkscape:snap-object-midpoints="true"
     inkscape:snap-midpoints="true"
     inkscape:snap-intersection-paths="true"
     inkscape:object-paths="true"
     inkscape:zoom="2.996875"
     inkscape:cx="222.98118"
     inkscape:cy="66.515564"
     inkscape:window-x="0"
     inkscape:window-y="0"
     inkscape:window-maximized="1"
     inkscape:current-layer="g2488"
     inkscape:document-rotation="0" />
  <g
     inkscape:groupmode="layer"
     inkscape:label="Image"
     id="g2488"
     transform="translate(96.936455,-8.6413056)">
    <g
       id="g900"
       style="fill:#00cbff;fill-opacity:1">
      <path
         id="path2492-3"
         style="fill:#00cbff;fill-opacity:1;stroke:none;stroke-width:1.00157;stroke-linecap:round"
         d="m -72.265625,8.6425781 v 0.00195 c -0.56018,0.018 -1.098084,0.2236144 -1.527344,0.5839844 -1.05804,0.8867505 -1.197067,2.4632545 -0.310547,3.5214845 l 3.433594,5.388672 c -2.74418,1.78485 -5.187571,4.078925 -7.175781,6.822266 -3.02854,-0.659791 -6.025179,-1.458159 -8.980469,-2.392579 1.71991,5.42672 2.978922,10.988756 3.763672,16.626953 0.32369,3.29635 0.651534,6.478079 0.865234,9.449219 0.007,0.13996 0.01333,0.279942 0.01953,0.419922 l 0.0039,0.09375 0.0059,0.191406 c 0.008,0.21807 0.01634,0.436167 0.02344,0.654297 0.008,0.25062 0.01528,0.501273 0.02148,0.751953 l 0.002,0.0918 c 0.005,0.25063 0.01,0.501293 0.01367,0.751953 l 0.002,0.09375 c 0.004,0.25064 0.0058,0.501296 0.0078,0.751953 10e-4,0.23372 0.002,0.467442 0.002,0.701172 -2.2e-4,3.66697 -0.199736,7.331223 -0.597656,10.976563 -0.0611,0.56109 -0.126826,1.12165 -0.197266,1.681641 -0.0353,0.279448 -0.0718,0.55875 -0.109375,0.83789 -0.0754,0.55925 -0.155484,1.117871 -0.240234,1.675781 -0.0845,0.55803 -0.173731,1.115335 -0.267578,1.671875 -0.0937,0.55615 -0.191972,1.111506 -0.294922,1.666016 -0.0516,0.27691 -0.104314,0.553608 -0.158204,0.830078 -0.108007,0.55367 -0.22064,1.106423 -0.33789,1.658203 -0.0581,0.27629 -0.117334,0.552335 -0.177734,0.828125 -0.12171,0.55052 -0.248017,1.100018 -0.378907,1.648438 -0.13084,0.54864 -0.26626,1.096188 -0.40625,1.642578 -0.13998,0.54611 -0.284504,1.091055 -0.433593,1.634766 v 0.002 c -0.0285,0.10291 -0.05714,0.205783 -0.08594,0.308593 -1.33689,4.81836 -3.02902,9.53112 -5.0625,14.09961 0,0 -0.734716,1.26171 -1.691406,3.36914 -1.67552,4.068619 -4.02191,10.994479 -4.34961,18.564459 -0.13244,3.05938 -0.0549,5.93724 0.75586,8.46679 0.81076,2.52954 2.271863,4.78449 5.376953,6.91407 6.21019,4.25917 19.384234,7.58924 45.121094,7.48828 24.367,-0.0956 39.7615784,-6.22712 47.0429684,-13.38281 3.6407,-3.57785 5.2777281,-7.32022 5.3613281,-10.83985 0.0836,-3.51965 -0.129475,-12.29381 -3.328125,-15.410157 -3.51124997,-3.4209 -8.7694181,-5.706751 -11.9238281,-5.626954 -3.1543904,0.0798 -5.5779374,0.0017 -8.8359374,2.171876 -6.51605,4.340525 -12.427627,11.588065 -16.873047,15.548835 -7.05155,6.28279 -20.742273,11.80717 -34.158203,8.60156 -12.72885,-3.04144 -18.859375,-7.67969 -18.859375,-7.67969 -1.09432,-0.84191 -1.140728,-1.57365 -0.298828,-2.66797 0.84251,-1.09368 2.253856,-0.13531 3.347656,0.70703 0,0 4.975226,3.91067 16.972656,6.77735 11.31036,2.70251 24.023022,-2.43944 29.669922,-7.47071 3.74975,-3.34095 8.529978,-10.074125 15.986328,-15.041015 0,0 -0.0808,-0.315153 -0.1875,-0.496094 -2.03272,-4.56791 -3.724187,-9.280016 -5.060547,-14.097656 -0.0754,-0.27183 -0.149576,-0.543956 -0.222656,-0.816406 -0.0734,-0.27248 -0.145667,-0.545268 -0.216797,-0.81836 -0.0708,-0.273139 -0.140454,-0.546582 -0.208984,-0.820312 -0.0682,-0.27316 -0.135252,-0.546605 -0.201172,-0.820312 -0.0662,-0.27447 -0.131363,-0.549209 -0.195312,-0.824219 -0.0636,-0.27318 -0.126142,-0.546623 -0.1875,-0.820313 l -0.002,-0.0059 c -0.0617,-0.27449 -0.12224,-0.549229 -0.18164,-0.824219 -0.0591,-0.2758 -0.117038,-0.551845 -0.173828,-0.828125 -0.0571,-0.27581 -0.113129,-0.551855 -0.167969,-0.828125 -0.0552,-0.27712 -0.10923,-0.554471 -0.162109,-0.832031 -0.0519,-0.27713 -0.102724,-0.554471 -0.152344,-0.832031 -0.029,-0.16008 -0.05774,-0.320249 -0.08594,-0.480469 -0.0331,-0.18741 -0.06556,-0.37491 -0.09766,-0.5625 -0.0352,-0.20823 -0.0697,-0.41656 -0.103516,-0.625 -0.0454,-0.27781 -0.0897,-0.555802 -0.132812,-0.833985 -0.0435,-0.27912 -0.0858,-0.55842 -0.126953,-0.83789 -0.0409,-0.27913 -0.0806,-0.558431 -0.119141,-0.837891 -0.0383,-0.27914 -0.0754,-0.55844 -0.111328,-0.83789 -0.0363,-0.2798 -0.0715,-0.559754 -0.105469,-0.839844 -0.0337,-0.27982 -0.06616,-0.559754 -0.09766,-0.839844 -0.0214,-0.19134 -0.0422,-0.382749 -0.0625,-0.574219 -0.018,-0.16792 -0.03563,-0.335896 -0.05273,-0.503906 -0.0278,-0.27593 -0.05448,-0.551975 -0.08008,-0.828125 -0.0154,-0.16337 -0.03032,-0.326794 -0.04492,-0.490234 l -0.01172,-0.132813 c -0.0175,-0.19981 -0.03448,-0.399699 -0.05078,-0.599609 -0.0121,-0.15362 -0.02376,-0.307268 -0.03516,-0.460938 l -0.0039,-0.04687 c -0.0192,-0.25579 -0.03739,-0.511648 -0.05469,-0.767578 -0.015,-0.2174 -0.02927,-0.434853 -0.04297,-0.652344 -0.0175,-0.28184 -0.03373,-0.563733 -0.04883,-0.845703 -0.0103,-0.19398 -0.0201,-0.387991 -0.0293,-0.582031 -0.007,-0.14712 -0.01468,-0.294246 -0.02148,-0.441406 -0.009,-0.22197 -0.01769,-0.443986 -0.02539,-0.666016 -0.0103,-0.28186 -0.01944,-0.563773 -0.02734,-0.845703 -0.006,-0.20637 -0.01103,-0.412751 -0.01563,-0.619141 -0.004,-0.15104 -0.0068,-0.302077 -0.0098,-0.453124 v -0.03516 c -0.005,-0.2591 -0.009,-0.518214 -0.01172,-0.777343 v -0.177735 c -0.002,-0.23762 -0.0029,-0.475251 -0.0039,-0.712891 v -0.08008 c 1.2e-4,-0.2819 9.07e-4,-0.563813 0.0039,-0.845703 0.01,-1.21727 0.0419,-2.43427 0.0957,-3.65039 v -0.002 c 0.29256,-3.498121 0.532877,-6.372259 0.867187,-9.449219 0.78453,-5.63953 2.043552,-11.20286 3.763672,-16.63086 -2.95468,0.93371 -5.950665,1.731415 -8.978515,2.390625 -1.64631,-2.27143 -3.6059,-4.234491 -5.78711,-5.857422 l 4.142578,-6.353515 c 0.88652,-1.05823 0.747493,-2.634734 -0.310546,-3.5214846 -0.42926,-0.36037 -0.967154,-0.5660344 -1.527344,-0.5839844 -0.76642,-0.024 -1.501481,0.3049783 -1.994141,0.8925781 l -0.226562,0.6542969 -1.8125,-1.1972656 c -0.26276,-0.21998 -0.592917,-0.3433594 -0.935547,-0.3496094 -0.45327,-0.009 -0.886205,0.1879563 -1.177735,0.5351563 -0.53237,0.63479 -0.449293,1.5809717 0.185547,2.1132817 l 1.814453,1.199218 -2.478515,3.996094 c -3.53866,-1.71164 -7.441238,-2.644391 -11.460938,-2.644531 -0.0631,-2.3e-4 -0.126303,-2.3e-4 -0.189453,0 -3.34037,0.0243 -6.596163,0.693992 -9.626953,1.914062 l -2.025391,-3.265625 1.814453,-1.199218 c 0.63484,-0.53231 0.717907,-1.4784917 0.185547,-2.1132817 -0.29153,-0.3472 -0.724454,-0.5439163 -1.177734,-0.5351563 -0.34262,0.006 -0.672787,0.1296294 -0.935547,0.3496094 l -1.8125,1.1972656 -0.226562,-0.6542969 c -0.49266,-0.5876 -1.227711,-0.9166181 -1.994141,-0.8925781 z m 6.400391,15.4882809 c 4.76646,5.5e-4 8.630319,3.86439 8.630859,8.63086 5.4e-4,4.76723 -3.863639,8.632262 -8.630859,8.632812 -4.768,5.3e-4 -8.633343,-3.864822 -8.632813,-8.632812 5.5e-4,-4.76723 3.865583,-8.63139 8.632813,-8.63086 z m 19.173828,0 c 4.76723,-5.3e-4 8.632262,3.86363 8.632812,8.63086 5.3e-4,4.76799 -3.864822,8.633342 -8.632812,8.632812 -4.76722,-5.5e-4 -8.63139,-3.865582 -8.63086,-8.632812 5.5e-4,-4.76647 3.8644,-8.63031 8.63086,-8.63086 z m -9.847656,16.384766 8.261718,3.253906 -2.042968,7.333985 -5.955079,7.251953 -5.695312,-6.794922 -2.310547,-7.789063 z" />
      <g
         id="g894"
         style="fill:#00cbff;fill-opacity:1">
        <path
           id="path2669-9-6"
           style="font-variation-settings:normal;vector-effect:none;fill:#00cbff;fill-opacity:1;stroke:none;stroke-width:0.517008;stroke-linecap:round;stroke-linejoin:miter;stroke-miterlimit:4;stroke-dasharray:none;stroke-dashoffset:0;stroke-opacity:1;stop-color:#000000"
           d="m -64.886909,27.047937 a 5,5 0 0 1 0.35547,1.85156 5,5 0 0 1 -5,5 5,5 0 0 1 -2.0918,-0.45898 5.7966113,5.7966113 0 0 0 5.75782,5.11718 5.7966113,5.7966113 0 0 0 5.79687,-5.79687 5.7966113,5.7966113 0 0 0 -4.81836,-5.71289 z" />
        <path
           id="path2669-9-0-7"
           style="font-variation-settings:normal;vector-effect:none;fill:#00cbff;fill-opacity:1;stroke:none;stroke-width:0.517008;stroke-linecap:round;stroke-linejoin:miter;stroke-miterlimit:4;stroke-dasharray:none;stroke-dashoffset:0;stroke-opacity:1;stop-color:#000000"
           d="m -45.731759,27.006547 a 5,5 0 0 1 0.35546,1.85157 5,5 0 0 1 -5,4.99999 5,5 0 0 1 -2.09179,-0.45898 5.7966113,5.7966113 0 0 0 5.75781,5.11719 5.7966113,5.7966113 0 0 0 5.79688,-5.79688 5.7966113,5.7966113 0 0 0 -4.81836,-5.71289 z" />
      </g>
    </g>
  </g>
</svg>
