<?xml version="1.0" encoding="UTF-8" standalone="no"?>
<svg
   xmlns:dc="http://purl.org/dc/elements/1.1/"
   xmlns:cc="http://creativecommons.org/ns#"
   xmlns:rdf="http://www.w3.org/1999/02/22-rdf-syntax-ns#"
   xmlns:svg="http://www.w3.org/2000/svg"
   xmlns="http://www.w3.org/2000/svg"
   xmlns:sodipodi="http://sodipodi.sourceforge.net/DTD/sodipodi-0.dtd"
   xmlns:inkscape="http://www.inkscape.org/namespaces/inkscape"
   version="1.1"
   id="svg2480"
   width="96.672859"
   height="137.59021"
   viewBox="0 0 96.672859 137.59021"
   sodipodi:docname="head1.svg"
   inkscape:version="1.0.2 (1.0.2+r75+1)">
  <metadata
     id="metadata2486">
    <rdf:RDF>
      <cc:Work
         rdf:about="">
        <dc:format>image/svg+xml</dc:format>
        <dc:type
           rdf:resource="http://purl.org/dc/dcmitype/StillImage" />
        <dc:title />
      </cc:Work>
    </rdf:RDF>
  </metadata>
  <defs
     id="defs2484" />
  <sodipodi:namedview
     pagecolor="#ffffff"
     bordercolor="#666666"
     borderopacity="1"
     objecttolerance="10"
     gridtolerance="10"
     guidetolerance="10"
     inkscape:pageopacity="0"
     inkscape:pageshadow="2"
     inkscape:window-width="3840"
     inkscape:window-height="2111"
     id="namedview2482"
     showgrid="false"
     inkscape:snap-bbox="true"
     inkscape:bbox-paths="true"
     inkscape:bbox-nodes="true"
     inkscape:snap-bbox-edge-midpoints="true"
     inkscape:snap-bbox-midpoints="true"
     inkscape:snap-smooth-nodes="true"
     inkscape:snap-text-baseline="true"
     inkscape:snap-center="true"
     inkscape:snap-object-midpoints="true"
     inkscape:snap-midpoints="true"
     inkscape:snap-intersection-paths="true"
     inkscape:object-paths="true"
     inkscape:zoom="2.996875"
     inkscape:cx="352.9954"
     inkscape:cy="73.203243"
     inkscape:window-x="0"
     inkscape:window-y="0"
     inkscape:window-maximized="1"
     inkscape:current-layer="g2488"
     inkscape:document-rotation="0" />
  <g
     inkscape:groupmode="layer"
     inkscape:label="Image"
     id="g2488"
     transform="translate(226.95067,-1.9536259)">
    <g
       id="g890"
       style="fill:#00cbff;fill-opacity:1">
      <path
         id="path2492-5"
         style="fill:#00cbff;fill-opacity:1;stroke:none;stroke-width:1.00157;stroke-linecap:round"
         d="m -208.28027,1.9548573 c -0.56018,0.01795 -1.09808,0.223621 -1.52734,0.583985 -1.05804,0.88675 -1.19707,2.463249 -0.31055,3.5214837 l 9.4336,11.388672 c -2.74418,1.784846 -5.18757,2.078927 -7.17578,4.822266 -3.02854,-0.659788 -10.02518,-3.458154 -12.98047,-4.392579 1.71991,5.426725 6.97892,14.988749 7.76367,20.626953 0.32369,3.296344 0.65153,6.478082 0.86523,9.449219 0.007,0.13996 0.0133,0.279935 0.0195,0.419922 l 0.004,0.09375 0.006,0.191406 c 0.008,0.218073 0.0163,0.436173 0.0234,0.654297 0.008,0.250624 0.0153,0.501276 0.0215,0.751953 l 0.002,0.09375 c 0.006,0.250633 0.0101,0.501289 0.0137,0.751953 l 0.002,0.09375 c 0.004,0.250642 0.006,0.501294 0.008,0.751954 0.001,0.233721 0.002,0.467444 0.002,0.701172 -2.2e-4,3.666971 -0.19974,7.331223 -0.59765,10.976562 -0.0611,0.561087 -0.12683,1.121653 -0.19727,1.681641 -0.0353,0.279447 -0.0717,0.558747 -0.10937,0.83789 -0.0754,0.559253 -0.15549,1.117869 -0.24024,1.675781 -0.0845,0.558028 -0.17373,1.115336 -0.26758,1.671876 -0.0937,0.55615 -0.19197,1.111507 -0.29492,1.666015 -0.0516,0.276911 -0.10431,0.553606 -0.1582,0.830078 -0.10801,0.553665 -0.22064,1.106419 -0.33789,1.658203 -0.0581,0.276288 -0.11734,0.552332 -0.17774,0.828125 -0.12171,0.550524 -0.24801,1.100023 -0.3789,1.648438 -0.13084,0.548647 -0.26626,1.096192 -0.40625,1.642578 -0.13998,0.546119 -0.28452,1.09106 -0.4336,1.634766 v 0.002 c -0.0285,0.10291 -0.0571,0.205775 -0.0859,0.308594 -1.33689,4.818358 -3.02902,9.531118 -5.0625,14.099608 0,0 -0.73471,1.2617 -1.6914,3.36914 -1.67552,4.068611 -4.02191,10.994481 -4.34961,18.564461 -0.13244,3.05938 -0.0549,5.93725 0.75586,8.4668 0.81076,2.52954 2.27186,4.78448 5.37695,6.91406 6.21019,4.25917 19.6782,11.36834 45.1211,7.48828 23.34647,-3.56035 33.70935,-12.17363 40.53166,-19.91983 6.82231,-7.74621 6.80722,-17.90773 -2.50042,-18.798921 -3.15439,0.0798 -6.45683,1.460601 -9.71483,3.630861 -6.51605,4.34052 -12.42764,11.58806 -16.87306,15.54883 -7.05155,6.28279 -20.74227,11.80717 -34.1582,8.60156 -12.72885,-3.04144 -18.85937,-7.67969 -18.85937,-7.67969 -1.09432,-0.84191 -1.14117,-1.57436 -0.29927,-2.66868 0.84251,-1.09368 2.25429,-0.13459 3.34809,0.70775 0,0 4.97523,3.91066 16.97266,6.77734 11.31036,2.70251 24.02302,-2.43943 29.66992,-7.4707 3.74975,-3.34095 9.97139,-11.01163 17.42774,-15.97852 0.26113,-0.17394 0.52975,-0.33637 0.79492,-0.50391 -1.30442,-3.163711 -2.42382,-7.054691 -2.42382,-7.054691 -2.03272,-4.56791 -3.72419,-9.28002 -5.06055,-14.097655 -0.0754,-0.271824 -0.14958,-0.543962 -0.22266,-0.816406 -0.0734,-0.272483 -0.14567,-0.545272 -0.2168,-0.818359 -0.0708,-0.273145 -0.14046,-0.546585 -0.20899,-0.820313 -0.0682,-0.273157 -0.13525,-0.546596 -0.20117,-0.820312 -0.0662,-0.274466 -0.13136,-0.549208 -0.19531,-0.824219 -0.0636,-0.273177 -0.12614,-0.546617 -0.1875,-0.820313 l -0.002,-0.0059 c -0.0617,-0.274486 -0.12224,-0.549228 -0.18164,-0.824219 -0.0591,-0.275798 -0.11703,-0.551843 -0.17382,-0.828125 -0.0571,-0.275807 -0.11313,-0.551851 -0.16797,-0.828125 -0.0552,-0.277116 -0.10923,-0.554462 -0.16211,-0.832031 -0.0519,-0.27713 -0.10273,-0.554477 -0.15235,-0.832031 -0.029,-0.160087 -0.0577,-0.320244 -0.0859,-0.480469 -0.0331,-0.187408 -0.0656,-0.374909 -0.0977,-0.5625 -0.0352,-0.208225 -0.0697,-0.416559 -0.10352,-0.625 -0.0454,-0.277809 -0.0897,-0.555806 -0.13281,-0.833984 -0.0435,-0.279119 -0.0858,-0.558418 -0.12695,-0.837891 -0.0409,-0.27913 -0.0806,-0.558429 -0.11914,-0.837891 -0.0383,-0.279141 -0.0754,-0.55844 -0.11133,-0.83789 -0.0363,-0.2798 -0.0715,-0.55975 -0.10547,-0.839844 -0.0337,-0.279811 -0.0662,-0.559761 -0.0977,-0.839844 -0.0214,-0.191346 -0.0422,-0.382756 -0.0625,-0.574218 -0.018,-0.167925 -0.0356,-0.335894 -0.0527,-0.503907 -0.0278,-0.275931 -0.0545,-0.551975 -0.0801,-0.828125 -0.0154,-0.163375 -0.0303,-0.326787 -0.0449,-0.490234 l -0.0117,-0.132813 c -0.0175,-0.199819 -0.0344,-0.39969 -0.0508,-0.599609 -0.0121,-0.153619 -0.0238,-0.307263 -0.0352,-0.460938 l -0.004,-0.04687 c -0.0192,-0.25579 -0.0374,-0.511651 -0.0547,-0.767579 -0.015,-0.217401 -0.0293,-0.43485 -0.043,-0.652343 -0.0175,-0.281832 -0.0337,-0.563733 -0.0488,-0.845704 -0.0103,-0.193981 -0.0201,-0.387993 -0.0293,-0.582031 -0.008,-0.14712 -0.0147,-0.294255 -0.0215,-0.441406 -0.009,-0.221977 -0.0177,-0.443983 -0.0254,-0.666016 -0.0103,-0.281862 -0.0194,-0.563765 -0.0273,-0.845703 -0.006,-0.206364 -0.011,-0.412745 -0.0156,-0.61914 -0.004,-0.151034 -0.007,-0.302076 -0.01,-0.453125 v -0.03516 c -0.005,-0.259098 -0.009,-0.518215 -0.0117,-0.777343 v -0.177735 c -0.002,-0.237625 -0.003,-0.475256 -0.004,-0.71289 v -0.08008 c 1.2e-4,-0.281906 0.001,-0.563809 0.004,-0.845704 0.01,-1.217273 0.0419,-2.434267 0.0957,-3.65039 v -0.002 c 0.29256,-3.498121 0.53287,-6.372261 0.86718,-9.449219 0.78453,-5.639525 6.04355,-15.202862 7.76367,-20.63086 -2.95468,0.933711 -9.95066,3.731421 -12.97851,4.390626 -1.64631,-2.271423 -3.6059,-2.234499 -5.78711,-3.857422 l 10.14255,-12.353474 c 0.88652,-1.0582347 0.7475,-2.6347327 -0.31054,-3.5214837 -0.42926,-0.360364 -0.96716,-0.566033 -1.52735,-0.583985 -0.76642,-0.02404 -1.50148,0.304975 -1.99414,0.892578 l -6.22656,6.654297 -7.8125,-7.197265 c -0.26276,-0.219981 -0.59292,-0.34336 -0.93555,-0.34961 -0.45327,-0.0088 -0.8862,0.187956 -1.17773,0.535157 -0.53237,0.634792 -0.44929,1.580969 0.18555,2.113281 l 7.81445,7.1992187 -2.47852,3.996093 c -3.53866,-1.711637 -7.44123,-2.644392 -11.46093,-2.644531 -0.0632,-2.28e-4 -0.12631,-2.28e-4 -0.18946,0 -3.34037,0.02432 -6.59616,0.693987 -9.62695,1.914062 l -2.02539,-3.265624 7.81445,-7.1992187 c 0.63484,-0.532312 0.71791,-1.478489 0.18555,-2.113281 -0.29153,-0.3472 -0.72446,-0.543918 -1.17774,-0.535157 -0.34262,0.0063 -0.67278,0.129628 -0.93554,0.34961 l -7.8125,7.197265 -6.22656,-6.654297 c -0.49266,-0.587603 -1.22772,-0.916618 -1.99415,-0.892578 z m 12.4004,21.4863277 c 4.76646,5.47e-4 8.63031,3.864395 8.63085,8.63086 5.4e-4,4.767228 -3.86363,8.632265 -8.63085,8.632812 -4.768,5.32e-4 -8.63335,-3.864821 -8.63282,-8.632812 5.5e-4,-4.767229 3.86559,-8.631392 8.63282,-8.63086 z m 19.17382,0 c 4.76723,-5.31e-4 8.63227,3.863632 8.63282,8.63086 5.3e-4,4.76799 -3.86483,8.633343 -8.63282,8.632812 -4.76722,-5.47e-4 -8.63139,-3.865584 -8.63086,-8.632812 5.5e-4,-4.766466 3.8644,-8.630313 8.63086,-8.63086 z m -9.77929,16.734375 6.08789,2.396485 -1.50586,5.404297 -4.38672,5.341796 -4.19727,-5.005859 -1.70117,-5.738281 z"
         sodipodi:nodetypes="ccccccccccccccccccccccccccccccccccsssszcssscccsssccscccccccccccccccccccccccccccccccccccscccccccccccccccccccccccccccccccccccccssccscssscccccccc" />
      <path
         id="path2669-9-3"
         style="font-variation-settings:normal;vector-effect:none;fill:#00cbff;fill-opacity:1;stroke:none;stroke-width:0.517008;stroke-linecap:round;stroke-linejoin:miter;stroke-miterlimit:4;stroke-dasharray:none;stroke-dashoffset:0;stroke-opacity:1;stop-color:#000000"
         d="m -194.90136,26.359154 a 5,5 0 0 1 0.35547,1.851563 5,5 0 0 1 -5,5 5,5 0 0 1 -2.0918,-0.458985 5.7966113,5.7966113 0 0 0 5.75782,5.117188 5.7966113,5.7966113 0 0 0 5.79687,-5.796875 5.7966113,5.7966113 0 0 0 -4.81836,-5.712891 z" />
      <path
         id="path2669-9-0-5"
         style="font-variation-settings:normal;vector-effect:none;fill:#00cbff;fill-opacity:1;stroke:none;stroke-width:0.517008;stroke-linecap:round;stroke-linejoin:miter;stroke-miterlimit:4;stroke-dasharray:none;stroke-dashoffset:0;stroke-opacity:1;stop-color:#000000"
         d="m -175.74621,26.317768 a 5,5 0 0 1 0.35546,1.851563 5,5 0 0 1 -5,5 5,5 0 0 1 -2.09179,-0.458985 5.7966113,5.7966113 0 0 0 5.75781,5.117188 5.7966113,5.7966113 0 0 0 5.79688,-5.796875 5.7966113,5.7966113 0 0 0 -4.81836,-5.712891 z" />
    </g>
  </g>
</svg>
